<svg width="59" height="53" viewBox="0 0 59 53" fill="none" xmlns="http://www.w3.org/2000/svg">
<path d="M6.916 45.012H2.842L2.142 47H0.476L3.962 37.256H5.81L9.296 47H7.616L6.916 45.012ZM6.468 43.71L4.886 39.188L3.29 43.71H6.468ZM10.2797 43.136C10.2797 42.3427 10.4384 41.6473 10.7557 41.05C11.0824 40.4433 11.5304 39.9767 12.0997 39.65C12.6691 39.3233 13.3224 39.16 14.0597 39.16C14.9931 39.16 15.7631 39.384 16.3697 39.832C16.9857 40.2707 17.4011 40.9007 17.6157 41.722H15.8937C15.7537 41.3393 15.5297 41.0407 15.2217 40.826C14.9137 40.6113 14.5264 40.504 14.0597 40.504C13.4064 40.504 12.8837 40.7373 12.4917 41.204C12.1091 41.6613 11.9177 42.3053 11.9177 43.136C11.9177 43.9667 12.1091 44.6153 12.4917 45.082C12.8837 45.5487 13.4064 45.782 14.0597 45.782C14.9837 45.782 15.5951 45.376 15.8937 44.564H17.6157C17.3917 45.348 16.9717 45.9733 16.3557 46.44C15.7397 46.8973 14.9744 47.126 14.0597 47.126C13.3224 47.126 12.6691 46.9627 12.0997 46.636C11.5304 46.3 11.0824 45.8333 10.7557 45.236C10.4384 44.6293 10.2797 43.9293 10.2797 43.136ZM18.6743 43.136C18.6743 42.3427 18.8329 41.6473 19.1503 41.05C19.4769 40.4433 19.9249 39.9767 20.4943 39.65C21.0636 39.3233 21.7169 39.16 22.4543 39.16C23.3876 39.16 24.1576 39.384 24.7643 39.832C25.3803 40.2707 25.7956 40.9007 26.0103 41.722H24.2883C24.1483 41.3393 23.9243 41.0407 23.6163 40.826C23.3083 40.6113 22.9209 40.504 22.4543 40.504C21.8009 40.504 21.2783 40.7373 20.8863 41.204C20.5036 41.6613 20.3123 42.3053 20.3123 43.136C20.3123 43.9667 20.5036 44.6153 20.8863 45.082C21.2783 45.5487 21.8009 45.782 22.4543 45.782C23.3783 45.782 23.9896 45.376 24.2883 44.564H26.0103C25.7863 45.348 25.3663 45.9733 24.7503 46.44C24.1343 46.8973 23.3689 47.126 22.4543 47.126C21.7169 47.126 21.0636 46.9627 20.4943 46.636C19.9249 46.3 19.4769 45.8333 19.1503 45.236C18.8329 44.6293 18.6743 43.9293 18.6743 43.136ZM30.9468 47.126C30.2188 47.126 29.5608 46.9627 28.9728 46.636C28.3848 46.3 27.9228 45.8333 27.5868 45.236C27.2508 44.6293 27.0828 43.9293 27.0828 43.136C27.0828 42.352 27.2554 41.6567 27.6008 41.05C27.9461 40.4433 28.4174 39.9767 29.0148 39.65C29.6121 39.3233 30.2794 39.16 31.0168 39.16C31.7541 39.16 32.4214 39.3233 33.0188 39.65C33.6161 39.9767 34.0874 40.4433 34.4328 41.05C34.7781 41.6567 34.9508 42.352 34.9508 43.136C34.9508 43.92 34.7734 44.6153 34.4188 45.222C34.0641 45.8287 33.5788 46.3 32.9628 46.636C32.3561 46.9627 31.6841 47.126 30.9468 47.126ZM30.9468 45.74C31.3574 45.74 31.7401 45.642 32.0948 45.446C32.4588 45.25 32.7528 44.956 32.9768 44.564C33.2008 44.172 33.3128 43.696 33.3128 43.136C33.3128 42.576 33.2054 42.1047 32.9908 41.722C32.7761 41.33 32.4914 41.036 32.1368 40.84C31.7821 40.644 31.3994 40.546 30.9888 40.546C30.5781 40.546 30.1954 40.644 29.8408 40.84C29.4954 41.036 29.2201 41.33 29.0148 41.722C28.8094 42.1047 28.7068 42.576 28.7068 43.136C28.7068 43.9667 28.9168 44.6107 29.3368 45.068C29.7661 45.516 30.3028 45.74 30.9468 45.74ZM43.5145 39.286V47H41.9185V46.09C41.6665 46.4073 41.3352 46.6593 40.9245 46.846C40.5232 47.0233 40.0938 47.112 39.6365 47.112C39.0298 47.112 38.4838 46.986 37.9985 46.734C37.5225 46.482 37.1445 46.1087 36.8645 45.614C36.5938 45.1193 36.4585 44.522 36.4585 43.822V39.286H38.0405V43.584C38.0405 44.2747 38.2132 44.8067 38.5585 45.18C38.9038 45.544 39.3752 45.726 39.9725 45.726C40.5698 45.726 41.0412 45.544 41.3865 45.18C41.7412 44.8067 41.9185 44.2747 41.9185 43.584V39.286H43.5145ZM49.5123 39.16C50.119 39.16 50.6603 39.286 51.1363 39.538C51.6216 39.79 51.9996 40.1633 52.2703 40.658C52.541 41.1527 52.6763 41.75 52.6763 42.45V47H51.0943V42.688C51.0943 41.9973 50.9216 41.47 50.5763 41.106C50.231 40.7327 49.7596 40.546 49.1623 40.546C48.565 40.546 48.089 40.7327 47.7343 41.106C47.389 41.47 47.2163 41.9973 47.2163 42.688V47H45.6203V39.286H47.2163V40.168C47.4776 39.8507 47.809 39.6033 48.2103 39.426C48.621 39.2487 49.055 39.16 49.5123 39.16ZM56.5741 40.588V44.858C56.5741 45.1473 56.6394 45.3573 56.7701 45.488C56.9101 45.6093 57.1434 45.67 57.4701 45.67H58.4501V47H57.1901C56.4714 47 55.9208 46.832 55.5381 46.496C55.1554 46.16 54.9641 45.614 54.9641 44.858V40.588H54.0541V39.286H54.9641V37.368H56.5741V39.286H58.4501V40.588H56.5741Z" fill="white"/>
<path d="M30.5912 0.000734136C31.0586 0.0785526 31.5296 0.146093 31.9935 0.236392C35.1803 0.858939 37.9022 3.39465 38.331 6.10728C38.6135 7.8927 38.3019 9.58048 37.0924 11.0906C35.4858 13.0963 33.2638 14.2643 30.3236 14.4294C26.4634 14.6468 23.289 12.7534 21.8479 10.1832C20.4939 7.76936 21.0415 4.55385 23.1639 2.55333C24.4668 1.32512 26.0355 0.479391 27.9784 0.14903C28.3085 0.0932353 28.6422 0.0491871 28.9749 0C29.5137 0.000734136 30.0524 0.000734136 30.5912 0.000734136Z" fill="white"/>
<path d="M15.079 25.7078C14.8254 23.2264 15.1705 20.7927 16.2885 18.4706C16.9549 17.0875 17.9514 15.896 19.5888 15.1648C20.6126 14.7075 21.7095 14.5092 22.8601 14.4924C23.2598 14.4865 23.611 14.6296 23.9411 14.8022C24.4667 15.076 24.9825 15.3638 25.5107 15.6347C28.5117 17.1712 31.5127 17.1676 34.5085 15.6222C34.9266 15.4064 35.3518 15.1979 35.7444 14.9534C36.4637 14.5063 37.2524 14.4417 38.1098 14.546C40.4427 14.8315 42.0942 15.8938 43.2069 17.5941C44.2008 19.1115 44.6233 20.7626 44.8575 22.4585C44.9772 23.3233 45.0151 24.1903 44.9948 25.0603C44.9323 27.734 42.7976 29.6677 39.6073 29.9525C39.2217 29.987 38.837 30.001 38.4514 30.001C35.63 30.0017 32.8086 30.0017 29.9872 30.0017C27.142 30.0017 24.2977 30.001 21.4525 30.0017C19.9929 30.0025 18.6161 29.7624 17.4056 29.0415C16.0315 28.2222 15.2207 27.0975 15.079 25.7078Z" fill="white"/>
</svg>
