<svg width="43" height="53" viewBox="0 0 43 53" fill="none" xmlns="http://www.w3.org/2000/svg">
<path d="M9.38 37.172V47H6.986V42.954H3.262V47H0.868V37.172H3.262V41.022H6.986V37.172H9.38ZM14.6642 47.112C13.8989 47.112 13.2082 46.9487 12.5922 46.622C11.9856 46.2953 11.5049 45.8287 11.1502 45.222C10.8049 44.6153 10.6322 43.906 10.6322 43.094C10.6322 42.2913 10.8096 41.5867 11.1642 40.98C11.5189 40.364 12.0042 39.8927 12.6202 39.566C13.2362 39.2393 13.9269 39.076 14.6922 39.076C15.4576 39.076 16.1482 39.2393 16.7642 39.566C17.3802 39.8927 17.8656 40.364 18.2202 40.98C18.5749 41.5867 18.7522 42.2913 18.7522 43.094C18.7522 43.8967 18.5702 44.606 18.2062 45.222C17.8516 45.8287 17.3616 46.2953 16.7362 46.622C16.1202 46.9487 15.4296 47.112 14.6642 47.112ZM14.6642 45.04C15.1216 45.04 15.5089 44.872 15.8262 44.536C16.1529 44.2 16.3162 43.7193 16.3162 43.094C16.3162 42.4687 16.1576 41.988 15.8402 41.652C15.5322 41.316 15.1496 41.148 14.6922 41.148C14.2256 41.148 13.8382 41.316 13.5302 41.652C13.2222 41.9787 13.0682 42.4593 13.0682 43.094C13.0682 43.7193 13.2176 44.2 13.5162 44.536C13.8242 44.872 14.2069 45.04 14.6642 45.04ZM29.9903 39.104C30.961 39.104 31.731 39.398 32.3003 39.986C32.879 40.574 33.1683 41.3907 33.1683 42.436V47H30.7883V42.758C30.7883 42.254 30.653 41.8667 30.3823 41.596C30.121 41.316 29.757 41.176 29.2903 41.176C28.8236 41.176 28.455 41.316 28.1843 41.596C27.923 41.8667 27.7923 42.254 27.7923 42.758V47H25.4123V42.758C25.4123 42.254 25.277 41.8667 25.0063 41.596C24.745 41.316 24.381 41.176 23.9143 41.176C23.4476 41.176 23.079 41.316 22.8083 41.596C22.547 41.8667 22.4163 42.254 22.4163 42.758V47H20.0223V39.188H22.4163V40.168C22.659 39.8413 22.9763 39.5847 23.3683 39.398C23.7603 39.202 24.2036 39.104 24.6983 39.104C25.2863 39.104 25.809 39.23 26.2663 39.482C26.733 39.734 27.097 40.0933 27.3583 40.56C27.629 40.1307 27.9976 39.7807 28.4643 39.51C28.931 39.2393 29.4396 39.104 29.9903 39.104ZM42.2066 42.968C42.2066 43.192 42.1926 43.4253 42.1646 43.668H36.7466C36.7839 44.1533 36.9379 44.5267 37.2086 44.788C37.4886 45.04 37.8293 45.166 38.2306 45.166C38.8279 45.166 39.2433 44.914 39.4766 44.41H42.0246C41.8939 44.9233 41.6559 45.3853 41.3106 45.796C40.9746 46.2067 40.5499 46.5287 40.0366 46.762C39.5233 46.9953 38.9493 47.112 38.3146 47.112C37.5493 47.112 36.8679 46.9487 36.2706 46.622C35.6733 46.2953 35.2066 45.8287 34.8706 45.222C34.5346 44.6153 34.3666 43.906 34.3666 43.094C34.3666 42.282 34.5299 41.5727 34.8566 40.966C35.1926 40.3593 35.6593 39.8927 36.2566 39.566C36.8539 39.2393 37.5399 39.076 38.3146 39.076C39.0706 39.076 39.7426 39.2347 40.3306 39.552C40.9186 39.8693 41.3759 40.322 41.7026 40.91C42.0386 41.498 42.2066 42.184 42.2066 42.968ZM39.7566 42.338C39.7566 41.9273 39.6166 41.6007 39.3366 41.358C39.0566 41.1153 38.7066 40.994 38.2866 40.994C37.8853 40.994 37.5446 41.1107 37.2646 41.344C36.9939 41.5773 36.8259 41.9087 36.7606 42.338H39.7566Z" fill="black"/>
<g clip-path="url(#clip0_0_69)">
<path d="M36 15.1749C35.8239 15.7464 35.5599 16.2445 35.0204 16.507C34.3869 16.8152 33.7875 16.7443 33.2306 16.3008C33.1062 16.2013 32.9954 16.0798 32.8854 15.9616C29.2177 12.0222 25.5508 8.08189 21.8846 4.14163C21.2511 3.46086 20.7443 3.46249 20.1062 4.14733C16.418 8.10961 12.7306 12.0719 9.04244 16.0334C8.37628 16.7492 7.613 16.8902 6.86565 16.4459C5.98933 15.9249 5.72605 14.6457 6.32241 13.7807C6.42635 13.6299 6.54775 13.4905 6.67142 13.3576C10.3512 9.40184 14.0553 5.47135 17.7033 1.48217C19.4848 -0.465542 22.522 -0.525058 24.2996 1.49685C25.3232 2.66189 26.4036 3.76904 27.5068 4.95528C27.5068 4.30142 27.506 3.71116 27.5068 3.12008C27.5083 2.54938 27.6669 2.04227 28.0713 1.65664C28.6198 1.13404 29.2564 1.02154 29.921 1.33216C30.6289 1.66316 30.9491 2.2999 30.9514 3.11518C30.9575 4.86804 30.9559 6.62009 30.9491 8.37295C30.9484 8.57759 31.003 8.72026 31.138 8.86457C32.4688 10.284 33.7883 11.7156 35.1213 13.1326C35.5068 13.5427 35.8634 13.9625 36 14.5463C36 14.755 36 14.9645 36 15.1749Z" fill="black"/>
<path d="M10.1539 22.8336C10.1539 21.543 10.1593 20.2524 10.1509 18.9618C10.1486 18.6129 10.2579 18.3381 10.4863 18.0935C13.7617 14.5797 17.0341 11.0617 20.3087 7.54622C20.7716 7.0489 21.2222 7.04645 21.6813 7.53889C24.9559 11.0544 28.2275 14.5723 31.5037 18.0862C31.7397 18.339 31.8474 18.6219 31.8459 18.983C31.8383 21.512 31.8451 24.041 31.8414 26.5692C31.8383 28.5137 30.531 29.96 28.726 29.9869C27.1638 30.0097 25.6016 29.9869 24.0386 29.9983C23.8163 30 23.7943 29.9119 23.7943 29.7097C23.8004 27.1701 23.7951 24.6313 23.8034 22.0917C23.8042 21.8422 23.7624 21.7509 23.5075 21.7525C21.8277 21.7648 20.1486 21.7631 18.4688 21.7534C18.2511 21.7517 18.1911 21.8088 18.1919 22.0485C18.2002 24.5775 18.1934 27.1065 18.2025 29.6347C18.2033 29.9038 18.1623 30.0032 17.88 30C16.2791 29.9796 14.6767 30.0138 13.0758 29.9731C11.4984 29.9331 10.182 28.4648 10.1608 26.7682C10.1441 25.4572 10.1577 24.1446 10.1577 22.8336C10.1555 22.8336 10.1547 22.8336 10.1539 22.8336Z" fill="black"/>
</g>
<defs>
<clipPath id="clip0_0_69">
<rect width="30" height="30" fill="white" transform="translate(6)"/>
</clipPath>
</defs>
</svg>
