<svg width="36" height="53" viewBox="0 0 36 53" fill="none" xmlns="http://www.w3.org/2000/svg">
<path d="M11.298 37.27V47H9.702V40.336L6.734 47H5.628L2.646 40.336V47H1.05V37.27H2.772L6.188 44.9L9.59 37.27H11.298ZM16.7417 47.126C16.0137 47.126 15.3557 46.9627 14.7677 46.636C14.1797 46.3 13.7177 45.8333 13.3817 45.236C13.0457 44.6293 12.8777 43.9293 12.8777 43.136C12.8777 42.352 13.0504 41.6567 13.3957 41.05C13.741 40.4433 14.2124 39.9767 14.8097 39.65C15.407 39.3233 16.0744 39.16 16.8117 39.16C17.549 39.16 18.2164 39.3233 18.8137 39.65C19.411 39.9767 19.8824 40.4433 20.2277 41.05C20.573 41.6567 20.7457 42.352 20.7457 43.136C20.7457 43.92 20.5684 44.6153 20.2137 45.222C19.859 45.8287 19.3737 46.3 18.7577 46.636C18.151 46.9627 17.479 47.126 16.7417 47.126ZM16.7417 45.74C17.1524 45.74 17.535 45.642 17.8897 45.446C18.2537 45.25 18.5477 44.956 18.7717 44.564C18.9957 44.172 19.1077 43.696 19.1077 43.136C19.1077 42.576 19.0004 42.1047 18.7857 41.722C18.571 41.33 18.2864 41.036 17.9317 40.84C17.577 40.644 17.1944 40.546 16.7837 40.546C16.373 40.546 15.9904 40.644 15.6357 40.84C15.2904 41.036 15.015 41.33 14.8097 41.722C14.6044 42.1047 14.5017 42.576 14.5017 43.136C14.5017 43.9667 14.7117 44.6107 15.1317 45.068C15.561 45.516 16.0977 45.74 16.7417 45.74ZM23.9194 40.406C24.1528 40.014 24.4608 39.7107 24.8434 39.496C25.2354 39.272 25.6974 39.16 26.2294 39.16V40.812H25.8234C25.1981 40.812 24.7221 40.9707 24.3954 41.288C24.0781 41.6053 23.9194 42.156 23.9194 42.94V47H22.3234V39.286H23.9194V40.406ZM34.7665 42.954C34.7665 43.2433 34.7478 43.5047 34.7105 43.738H28.8165C28.8632 44.354 29.0918 44.8487 29.5025 45.222C29.9132 45.5953 30.4172 45.782 31.0145 45.782C31.8732 45.782 32.4798 45.4227 32.8345 44.704H34.5565C34.3232 45.4133 33.8985 45.9967 33.2825 46.454C32.6758 46.902 31.9198 47.126 31.0145 47.126C30.2772 47.126 29.6145 46.9627 29.0265 46.636C28.4478 46.3 27.9905 45.8333 27.6545 45.236C27.3278 44.6293 27.1645 43.9293 27.1645 43.136C27.1645 42.3427 27.3232 41.6473 27.6405 41.05C27.9672 40.4433 28.4198 39.9767 28.9985 39.65C29.5865 39.3233 30.2585 39.16 31.0145 39.16C31.7425 39.16 32.3912 39.3187 32.9605 39.636C33.5298 39.9533 33.9732 40.4013 34.2905 40.98C34.6078 41.5493 34.7665 42.2073 34.7665 42.954ZM33.1005 42.45C33.0912 41.862 32.8812 41.3907 32.4705 41.036C32.0598 40.6813 31.5512 40.504 30.9445 40.504C30.3938 40.504 29.9225 40.6813 29.5305 41.036C29.1385 41.3813 28.9052 41.8527 28.8305 42.45H33.1005Z" fill="white"/>
<path d="M16.8456 6.94388C16.8456 8.04901 16.8485 9.15413 16.8446 10.2593C16.8379 12.3606 15.3586 13.8406 13.2559 13.8434C11.0327 13.8473 8.81047 13.8473 6.58727 13.8434C4.49032 13.8396 3.00626 12.3529 3.00241 10.2544C2.99952 8.03263 2.99855 5.80985 3.00337 3.58708C3.00723 1.49052 4.49418 0.00674444 6.59209 0.00289047C8.81529 -0.000963491 11.0375 -0.000963491 13.2607 0.00289047C15.3606 0.00674444 16.8398 1.48956 16.8456 3.59093C16.8485 4.70858 16.8456 5.82623 16.8456 6.94388Z" fill="white"/>
<path d="M19.158 6.92437C19.158 5.80672 19.1551 4.69003 19.1589 3.57239C19.1666 1.49702 20.6536 0.00746706 22.7274 0.00361309C24.9622 -0.00120436 27.1969 -0.00120436 29.4317 0.00361309C31.5094 0.00843055 32.9953 1.49413 33.0002 3.57142C33.005 5.80576 33.0059 8.04009 33.0002 10.2754C32.9953 12.3536 31.5094 13.8393 29.4326 13.8442C27.1979 13.849 24.9631 13.849 22.7284 13.8442C20.6526 13.8393 19.1657 12.3508 19.158 10.2764C19.1541 9.15967 19.158 8.04202 19.158 6.92437Z" fill="white"/>
<path d="M9.96037 16.1573C11.0657 16.1573 12.171 16.1544 13.2764 16.1583C15.3531 16.166 16.84 17.6497 16.8449 19.727C16.8497 21.9614 16.8506 24.1957 16.8449 26.431C16.8391 28.5092 15.3541 29.995 13.2764 29.9998C11.0416 30.0046 8.80685 30.0046 6.5721 29.9998C4.49731 29.995 3.00747 28.5054 3.00361 26.431C2.9988 24.1967 2.9988 21.9623 3.00361 19.727C3.00843 17.6517 4.49731 16.165 6.57306 16.1583C7.70152 16.1544 8.83095 16.1573 9.96037 16.1573Z" fill="white"/>
<path d="M22.4887 21.9251C23.197 21.9251 23.9062 21.9135 24.6145 21.9318C24.8728 21.9386 24.9316 21.8567 24.9297 21.609C24.9181 20.1802 24.9191 18.7504 24.9268 17.3215C24.9306 16.7087 25.3672 16.2289 25.9492 16.1634C26.5168 16.0998 27.0497 16.4669 27.1914 17.0344C27.229 17.1828 27.229 17.3437 27.23 17.4988C27.2328 18.8438 27.2406 20.1889 27.2242 21.5339C27.2203 21.8364 27.2762 21.9405 27.6096 21.9347C28.9781 21.9125 30.3484 21.9241 31.7168 21.926C32.4772 21.927 33.0024 22.4058 32.9975 23.0861C32.9937 23.7653 32.4694 24.2307 31.7024 24.2317C30.3214 24.2336 28.9395 24.2403 27.5586 24.2249C27.283 24.222 27.2222 24.301 27.2242 24.566C27.2377 25.9467 27.2319 27.3283 27.23 28.709C27.229 29.474 26.7578 29.9972 26.0774 29.9982C25.398 29.9991 24.9248 29.4731 24.9239 28.7109C24.922 27.3303 24.9162 25.9486 24.9297 24.5679C24.9326 24.3059 24.8757 24.222 24.5972 24.2249C23.276 24.2413 21.9548 24.2317 20.6336 24.2317C19.6969 24.2317 19.1611 23.8164 19.1563 23.087C19.1505 22.3403 19.6854 21.9251 20.65 21.9251C21.2638 21.9251 21.8767 21.9251 22.4887 21.9251Z" fill="white"/>
</svg>
