<svg width="51" height="53" viewBox="0 0 51 53" fill="none" xmlns="http://www.w3.org/2000/svg">
<path d="M11.298 37.27V47H9.702V40.336L6.734 47H5.628L2.646 40.336V47H1.05V37.27H2.772L6.188 44.9L9.59 37.27H11.298ZM20.3397 39.286L15.6077 50.626H13.9557L15.5237 46.874L12.4857 39.286H14.2637L16.4337 45.166L18.6877 39.286H20.3397ZM31.4669 37.27V38.572H28.8769V47H27.2809V38.572H24.6769V37.27H31.4669ZM34.6792 40.406C34.9125 40.014 35.2205 39.7107 35.6032 39.496C35.9952 39.272 36.4572 39.16 36.9892 39.16V40.812H36.5832C35.9579 40.812 35.4819 40.9707 35.1552 41.288C34.8379 41.6053 34.6792 42.156 34.6792 42.94V47H33.0832V39.286H34.6792V40.406ZM39.2683 38.264C38.9789 38.264 38.7363 38.166 38.5403 37.97C38.3443 37.774 38.2463 37.5313 38.2463 37.242C38.2463 36.9527 38.3443 36.71 38.5403 36.514C38.7363 36.318 38.9789 36.22 39.2683 36.22C39.5483 36.22 39.7863 36.318 39.9823 36.514C40.1783 36.71 40.2763 36.9527 40.2763 37.242C40.2763 37.5313 40.1783 37.774 39.9823 37.97C39.7863 38.166 39.5483 38.264 39.2683 38.264ZM40.0523 39.286V47H38.4563V39.286H40.0523ZM43.7437 40.42C44.0143 40.0653 44.383 39.7667 44.8497 39.524C45.3163 39.2813 45.8437 39.16 46.4317 39.16C47.1037 39.16 47.715 39.328 48.2657 39.664C48.8257 39.9907 49.2643 40.4527 49.5817 41.05C49.899 41.6473 50.0577 42.3333 50.0577 43.108C50.0577 43.8827 49.899 44.578 49.5817 45.194C49.2643 45.8007 48.8257 46.2767 48.2657 46.622C47.715 46.958 47.1037 47.126 46.4317 47.126C45.8437 47.126 45.321 47.0093 44.8637 46.776C44.4063 46.5333 44.033 46.2347 43.7437 45.88V50.668H42.1477V39.286H43.7437V40.42ZM48.4337 43.108C48.4337 42.576 48.3217 42.1187 48.0977 41.736C47.883 41.344 47.5937 41.05 47.2297 40.854C46.875 40.6487 46.4923 40.546 46.0817 40.546C45.6803 40.546 45.2977 40.6487 44.9337 40.854C44.579 41.0593 44.2897 41.358 44.0657 41.75C43.851 42.142 43.7437 42.604 43.7437 43.136C43.7437 43.668 43.851 44.1347 44.0657 44.536C44.2897 44.928 44.579 45.2267 44.9337 45.432C45.2977 45.6373 45.6803 45.74 46.0817 45.74C46.4923 45.74 46.875 45.6373 47.2297 45.432C47.5937 45.2173 47.883 44.9093 48.0977 44.508C48.3217 44.1067 48.4337 43.64 48.4337 43.108Z" fill="white"/>
<path d="M13.2421 29.9983C12.8538 29.8353 12.4673 29.673 12.2644 29.3117C12.0859 28.9938 12.0215 28.6579 12.1843 28.3363C12.2931 28.1216 12.1982 28.0611 12.0084 27.9743C11.4974 27.7387 10.9941 27.4881 10.4892 27.242C9.96331 26.9854 9.87102 26.7192 10.1662 26.2711C11.7438 23.8746 13.3231 21.4788 14.9042 19.0837C15.1932 18.6461 15.5041 18.5713 16.0125 18.8152C16.7534 19.1705 17.4944 19.5265 18.2283 19.8923C18.399 19.9776 18.4799 19.9746 18.5835 19.813C19.1155 18.9805 19.6605 18.154 20.2064 17.3282C20.2743 17.2257 20.29 17.1517 20.1977 17.0469C19.8198 16.6221 19.8268 16.1621 20.0593 15.6871C20.9203 13.9219 22.1096 12.3256 23.4609 10.8125C24.2044 9.97996 25.0097 9.19308 25.849 8.43238C27.5407 6.89975 29.6799 6.83468 31.5639 8.25436C32.7332 9.13548 33.9033 10.0166 35.2328 10.7205C36.2776 11.274 37.3798 11.6981 38.6144 11.8335C39.3126 11.9105 39.8019 12.2411 39.9578 12.8425C40.0962 13.3758 39.8925 13.8306 39.3727 14.162C39.0732 14.3527 38.7284 14.435 38.3602 14.4006C36.2854 14.2046 34.3265 13.7334 32.6522 12.5987C32.6366 12.5882 32.6122 12.5859 32.5521 12.5672C32.5921 13.0041 32.6261 13.4267 32.6696 13.8486C32.7698 14.8254 32.8751 15.8015 32.9761 16.7784C33.0353 17.3506 32.9186 17.8914 32.5199 18.3634C32.3989 18.507 32.4293 18.6072 32.5242 18.7411C34.5328 21.582 36.2288 24.5612 37.8038 27.5928C38.2165 28.3879 38.0049 29.1703 37.2649 29.664C37.0115 29.833 36.7068 29.8966 36.4204 29.9976C36.1966 29.9976 35.9729 29.9976 35.7482 29.9976C34.9455 29.9116 34.5006 29.4658 34.1941 28.8704C33.327 27.1919 32.4163 25.5306 31.4316 23.9C30.87 22.9703 30.2937 22.0465 29.6677 21.1467C29.5214 20.9365 29.5083 20.935 29.356 21.1601C29.0121 21.6665 28.6847 22.1819 28.3713 22.7025C27.3935 24.3249 26.401 25.9398 25.4285 27.5644C25.1212 28.0768 24.7947 28.5817 24.4708 29.0858C24.1356 29.6064 23.6515 29.9654 22.9167 29.9968C22.7156 29.9968 22.5136 29.9968 22.3125 29.9968C20.9438 29.8727 20.3118 28.4784 20.9125 27.5532C21.6708 26.3863 22.4213 25.215 23.1779 24.0481C23.9946 22.7885 24.7877 21.5169 25.6018 20.2558C25.8621 19.8519 26.1137 19.4442 26.3758 19.0411C26.4698 18.8967 26.502 18.7606 26.3749 18.6125C25.937 18.1024 25.8386 17.5062 25.7855 16.8951C25.674 15.622 25.5312 14.3512 25.4033 13.049C25.2883 13.1275 25.2326 13.2158 25.1664 13.295C24.2688 14.3684 23.4966 15.5031 22.8984 16.7231C22.7043 17.1188 22.4022 17.4307 21.9015 17.5638C21.7039 17.6162 21.5942 17.7456 21.4967 17.8907C19.704 20.5558 17.9558 23.2418 16.1823 25.9151C15.7835 26.5165 15.39 27.1208 14.9895 27.7215C14.8911 27.8688 14.8807 27.993 14.9617 28.1531C15.2855 28.7926 15.1401 29.2982 14.5472 29.7635C14.3418 29.9243 14.0971 29.9572 13.8472 29.9983C13.6452 29.9983 13.4441 29.9983 13.2421 29.9983Z" fill="white"/>
<path d="M31.8415 3.3106C31.8441 5.13719 30.1037 6.63316 27.982 6.62867C25.8663 6.62344 24.1511 5.1499 24.1407 3.32781C24.1294 1.49449 25.8489 0.00449808 27.9785 1.01525e-05C30.1081 -0.00447777 31.8389 1.47953 31.8415 3.3106Z" fill="white"/>
</svg>
